<svg xmlns="http://www.w3.org/2000/svg" xmlns:xlink="http://www.w3.org/1999/xlink" xml:space="preserve" version="1.1" style="shape-rendering:geometricPrecision;text-rendering:geometricPrecision;image-rendering:optimizeQuality;" viewBox="0 0 333.33 416.66249999999997" x="0px" y="0px" fill-rule="evenodd" clip-rule="evenodd"><defs><style type="text/css">
   
    .fil0 {fill:black;fill-rule:nonzero}
   
  </style></defs><g><path class="fil0" d="M129.18 107.66l22.08 61.26c0.18,0.47 0.43,0.87 0.73,1.18 0.32,0.31 0.72,0.56 1.2,0.73l61.26 22.09c2.63,0.95 4.81,2.64 6.32,4.79 1.52,2.14 2.37,4.76 2.37,7.57 0.02,2.78 -0.84,5.4 -2.36,7.57 -1.51,2.14 -3.69,3.83 -6.33,4.78l-61.28 22.09c-0.44,0.16 -0.83,0.41 -1.16,0.74 -0.32,0.32 -0.57,0.72 -0.74,1.18l-22.09 61.26c-0.95,2.63 -2.63,4.81 -4.79,6.32 -2.14,1.52 -4.76,2.37 -7.57,2.37 -2.78,0.02 -5.4,-0.84 -7.57,-2.36 -2.15,-1.51 -3.83,-3.69 -4.78,-6.33l-22.09 -61.28c-0.16,-0.45 -0.41,-0.85 -0.72,-1.16 -0.33,-0.33 -0.72,-0.58 -1.18,-0.74l-61.28 -22.09c-2.63,-0.95 -4.81,-2.64 -6.32,-4.79 -1.52,-2.14 -2.37,-4.76 -2.37,-7.57 -0.02,-2.79 0.84,-5.4 2.36,-7.57 1.51,-2.15 3.69,-3.83 6.33,-4.78l61.26 -22.08c0.45,-0.17 0.85,-0.43 1.18,-0.75 0.32,-0.32 0.58,-0.72 0.74,-1.16l22.09 -61.28c0.95,-2.65 2.64,-4.83 4.78,-6.33 2.17,-1.52 4.79,-2.38 7.57,-2.38 2.79,0 5.4,0.86 7.57,2.38 2.15,1.51 3.83,3.69 4.78,6.33zm56.39 -80.56l8.11 22.51 22.51 8.11c1.63,0.58 2.96,1.62 3.9,2.94 0.93,1.32 1.45,2.93 1.46,4.65 0.02,1.7 -0.52,3.31 -1.46,4.66 -0.93,1.34 -2.26,2.38 -3.88,2.96l-22.52 8.11 -8.12 22.51c-0.58,1.62 -1.62,2.97 -2.94,3.9l-0.46 0.29c-1.25,0.76 -2.69,1.19 -4.2,1.19 -1.69,0 -3.3,-0.54 -4.64,-1.48 -1.34,-0.93 -2.38,-2.27 -2.96,-3.88l-8.11 -22.53 -22.51 -8.11c-1.63,-0.58 -2.97,-1.62 -3.9,-2.94l-0.29 -0.46c-0.76,-1.25 -1.19,-2.7 -1.19,-4.2 0,-1.7 0.54,-3.3 1.48,-4.65 0.93,-1.34 2.28,-2.39 3.9,-2.96l22.51 -8.12 8.11 -22.5c0.59,-1.64 1.62,-2.97 2.94,-3.9l0.46 -0.29c1.25,-0.76 2.7,-1.19 4.2,-1.19 1.7,0 3.3,0.54 4.65,1.48 1.34,0.93 2.38,2.28 2.96,3.9zm72.31 51.37l15.31 42.4c9.69,5.09 31.32,11.45 42.6,15.52 2.14,0.77 3.9,2.13 5.11,3.86l0.25 0.4c1.06,1.67 1.66,3.63 1.66,5.72 0.02,2.23 -0.68,4.34 -1.91,6.1 -1.22,1.75 -2.98,3.11 -5.1,3.89l-42.43 15.32c-4.52,8.02 -11.88,32.53 -15.51,42.6 -0.77,2.13 -2.13,3.89 -3.86,5.11l-0.4 0.25c-1.67,1.06 -3.63,1.66 -5.72,1.66 -2.23,0.02 -4.34,-0.68 -6.1,-1.91 -1.75,-1.22 -3.11,-2.98 -3.88,-5.11l-15.31 -42.4c-9.69,-5.09 -31.32,-11.45 -42.6,-15.52 -2.13,-0.76 -3.89,-2.14 -5.11,-3.89 -1.22,-1.74 -1.91,-3.85 -1.91,-6.1 -0.02,-2.23 0.68,-4.34 2.01,-6.23 1.31,-1.75 3,-3.03 5.02,-3.75l42.41 -15.32c4.52,-8.02 11.88,-32.53 15.51,-42.6 0.77,-2.14 2.13,-3.9 3.86,-5.11l0.39 -0.25c1.68,-1.08 3.65,-1.68 5.73,-1.68 2.23,0 4.34,0.7 6.1,1.93 1.75,1.22 3.11,2.98 3.88,5.11z"/></g><text x="0" y="348.33" fill="#000000" font-size="5px" font-weight="bold" font-family="'Helvetica Neue', Helvetica, Arial-Unicode, Arial, Sans-serif">Created by bajuja</text><text x="0" y="353.33" fill="#000000" font-size="5px" font-weight="bold" font-family="'Helvetica Neue', Helvetica, Arial-Unicode, Arial, Sans-serif">from the Noun Project</text></svg>